:FULLY-SPECIFIED
:FORCE-ALL-JOINTS-BE-3DOF
:DEGREES
917
root 2.63121 15.9751 32.2702 2.30155 10.6806 3.56303
lfemur -7.76106 12.6157 -5.43087
ltibia 24.1476 -0 0
lfoot -22.3926 -15.373 0.749663
ltoes -8.50996 0 0
rfemur -28.7951 -10.2141 -5.27052
rtibia 65.5327 -0 0
rfoot 0.0238037 -10.4031 -0.519923
rtoes -10.0141 0 0
lowerback 0.165181 -1.95325 -2.90752
upperback -0.33866 -2.55847 -5.25027
thorax -0.45514 -1.32961 -3.74502
lowerneck -7.29049 -3.01182 0.407453
upperneck 3.91977 -4.34443 4.84198
head 2.66861 -1.99768 1.27143
lclavicle 7.40473e-015 3.49861e-014 0
lhumerus -53.8521 -41.0221 108.351
lradius 59.2649 -0 0
lwrist 19.634 0 0
lhand 36.8685 23.2802 0.342341
lfingers 7.12502 -0 0
lthumb 59.6016 36.3184 0.0434652
rclavicle 7.40473e-015 3.49861e-014 0
rhumerus -42.8407 30.3459 -61.4873
rradius 101.295 -0 0
rwrist -11.2643 0 0
rhand 16.1006 -11.3101 -0.0360019
rfingers 7.12502 -0 0
rthumb 40.8464 -35.9431 0.0763616
918
root 2.56954 15.9505 32.3075 2.51398 9.84634 3.76706
lfemur -6.8168 11.6436 -4.8669
ltibia 22.7148 -0 0
lfoot -22.7722 -16.3295 0.736984
ltoes -9.40079 0 0
rfemur -28.6476 -9.93339 -5.71306
rtibia 64.0856 -0 0
rfoot -0.541593 -9.95908 -0.511158
rtoes -12.5604 0 0
lowerback -0.0984764 -1.87807 -2.84769
upperback -0.411076 -2.44861 -5.45827
thorax -0.390746 -1.2753 -4.00591
lowerneck -7.29389 -2.80633 0.523785
upperneck 3.86736 -4.07799 4.83567
head 2.64103 -1.86457 1.26208
lclavicle 7.40473e-015 3.49861e-014 0
lhumerus -54.0529 -41.0721 108.31
lradius 59.1142 -0 0
lwrist 20.046 0 0
lhand 37.2693 23.6922 0.336576
lfingers 7.12502 -0 0
lthumb 59.9448 36.3794 0.0427342
rclavicle 7.40473e-015 3.49861e-014 0
rhumerus -42.2631 31.8357 -59.7762
rradius 100.719 -0 0
rwrist -11.468 0 0
rhand 16.5392 -11.3497 -0.0353962
rfingers 7.12502 -0 0
rthumb 41.2586 -35.8538 0.0750768
919
root 2.50786 15.9258 32.3448 2.72289 9.0113 3.96747
lfemur -5.88549 10.6626 -4.32121
ltibia 21.282 -0 0
lfoot -23.1515 -17.2859 0.717971
ltoes -10.2916 0 0
rfemur -28.5024 -9.65159 -6.15448
rtibia 62.6385 -0 0
rfoot -1.1069 -9.51515 -0.498012
rtoes -15.1067 0 0
lowerback -0.362044 -1.80262 -2.7882
upperback -0.483885 -2.33901 -5.66639
thorax -0.326601 -1.22069 -4.26674
lowerneck -7.29686 -2.60084 0.640085
upperneck 3.81493 -3.81156 4.82912
head 2.61344 -1.73145 1.25267
lclavicle 7.40473e-015 3.49861e-014 0
lhumerus -54.2538 -41.1223 108.269
lradius 58.9635 -0 0
lwrist 20.4581 0 0
lhand 37.6701 24.1042 0.327929
lfingers 7.12502 -0 0
lthumb 60.288 36.4404 0.0416377
rclavicle 7.40473e-015 3.49861e-014 0
rhumerus -41.623 33.3098 -58.0187
rradius 100.143 -0 0
rwrist -11.6717 0 0
rhand 16.9779 -11.3893 -0.0344875
rfingers 7.12502 -0 0
rthumb 41.6709 -35.7645 0.0731498
920
root 2.44619 15.9011 32.3821 2.92838 8.17556 4.16436
lfemur -4.96657 9.67312 -3.79344
ltibia 19.8493 -0 0
lfoot -23.5305 -18.2422 0.692629
ltoes -11.1825 0 0
rfemur -28.3596 -9.3687 -6.59481
rtibia 61.1914 -0 0
rfoot -1.6721 -9.07138 -0.480487
rtoes -17.653 0 0
lowerback -0.625523 -1.72689 -2.72907
upperback -0.557087 -2.22968 -5.87463
thorax -0.262706 -1.16579 -4.52751
lowerneck -7.29942 -2.39534 0.756356
upperneck 3.76249 -3.54514 4.82233
head 2.58582 -1.59834 1.24319
lclavicle 7.40473e-015 3.49861e-014 0
lhumerus -54.4549 -41.1725 108.229
lradius 58.8127 -0 0
lwrist 20.8702 0 0
lhand 38.0708 24.5161 0.316402
lfingers 7.12502 -0 0
lthumb 60.6312 36.5014 0.0401757
rclavicle 7.40473e-015 3.49861e-014 0
rhumerus -40.917 34.7665 -56.2106
rradius 99.5668 -0 0
rwrist -11.8754 0 0
rhand 17.4165 -11.4288 -0.0332761
rfingers 7.12502 -0 0
rthumb 42.0831 -35.6753 0.0705806
921
root 2.38452 15.8764 32.4194 3.13057 7.33914 4.35783
lfemur -4.05947 8.67546 -3.28326
ltibia 18.4165 -0 0
lfoot -23.909 -19.1983 0.660968
ltoes -12.0733 0 0
rfemur -28.219 -9.08474 -7.03407
rtibia 59.7443 -0 0
rfoot -2.23713 -8.62779 -0.458587
rtoes -20.1993 0 0
lowerback -0.888912 -1.65089 -2.67029
upperback -0.63068 -2.12061 -6.083
thorax -0.199064 -1.1106 -4.7882
lowerneck -7.30156 -2.18984 0.872601
upperneck 3.71003 -3.27872 4.81529
head 2.55818 -1.46524 1.23365
lclavicle 7.40473e-015 3.49861e-014 0
lhumerus -54.6561 -41.2229 108.189
lradius 58.662 -0 0
lwrist 21.2822 0 0
lhand 38.4714 24.9279 0.301995
lfingers 7.12502 -0 0
lthumb 60.9744 36.5624 0.0383484
rclavicle 7.40473e-015 3.49861e-014 0
rhumerus -40.1415 36.2037 -54.3475
rradius 98.9909 -0 0
rwrist -12.0792 0 0
rhand 17.8552 -11.4683 -0.031762
rfingers 7.12502 -0 0
rthumb 42.4954 -35.5861 0.0673693
922
root 2.32284 15.8518 32.4567 3.32956 6.50204 4.548
lfemur -3.16365 7.66999 -2.79037
ltibia 16.9837 -0 0
lfoot -24.2869 -20.1541 0.622996
ltoes -12.9641 0 0
rfemur -28.0808 -8.79972 -7.47229
rtibia 58.2972 -0 0
rfoot -2.80198 -8.18445 -0.432314
rtoes -22.7456 0 0
lowerback -1.15221 -1.57462 -2.61187
upperback -0.704664 -2.01181 -6.2915
thorax -0.135674 -1.05512 -5.04883
lowerneck -7.30328 -1.98433 0.988824
upperneck 3.65756 -3.0123 4.80802
head 2.53052 -1.33214 1.22405
lclavicle 7.40473e-015 3.49861e-014 0
lhumerus -54.8573 -41.2733 108.149
lradius 58.5112 -0 0
lwrist 21.6943 0 0
lhand 38.8718 25.3395 0.284709
lfingers 7.12502 -0 0
lthumb 61.3177 36.6234 0.0361557
rclavicle 7.40473e-015 3.49861e-014 0
rhumerus -39.2929 37.6192 -52.4249
rradius 98.4149 -0 0
rwrist -12.2829 0 0
rhand 18.2938 -11.5079 -0.0299453
rfingers 7.12502 -0 0
rthumb 42.9076 -35.4969 0.0635162
